# xmcd
#
# Track frame offsets:
#	150
#	13533
#	26223
#	39942
#	53945
#	67332
#	80132
#	93929
#	106737
#	119203
#	131944
#	144365
#	157509
#	169771
#	182392
#	194975
#	208298
#	220445
#	233307
#	246303
#	259914
#	273243
#	286449
#
# Disc length: 3986 seconds
#
# Revision: 0
# Processed by: cddbd v1.4PL0 Copyright (c) Steve Scherf et al.
# Submitted via: dBpowerAMP V4.0
#
DISCID=5d0f9017
DTITLE=Kessinger Brothers (Clark and Luches) - Complete Recorded Works In Chronological Order
DYEAR=1929
DGENRE=Old-Time
TTITLE0=Don't Let The Deal Go Down
TTITLE1=Sopping The Gravy
TTITLE2=Polka Four
TTITLE3=Midnight Serenade Waltz (Serenade De Minuit)
TTITLE4=Gippy Get Your Hair Cut
TTITLE5=Little Brown Jug
TTITLE6=Little Betty Brown
TTITLE7=Wildflower Waltz
TTITLE8=Ragtime Annie
TTITLE9=Chicken Reel (Le Reel Des Poulets)
TTITLE10=Mary Jane Waltz
TTITLE11=Under The Double Eagle March
TTITLE12=Steamboat Bill
TTITLE13=Marching Through Georgia
TTITLE14=Dixie
TTITLE15=Lauterbach Waltz
TTITLE16=Lonesome Road Blues
TTITLE17=Pop Goes The Weasel
TTITLE18=Regal March
TTITLE19=Mexican Waltz
TTITLE20=Neopolitan Waltz
TTITLE21=Everybody To The Punchin'
TTITLE22=Shoo! Fly
EXTD=hale
EXTT0=
EXTT1=
EXTT2=
EXTT3=
EXTT4=
EXTT5=
EXTT6=
EXTT7=
EXTT8=
EXTT9=
EXTT10=
EXTT11=
EXTT12=
EXTT13=
EXTT14=
EXTT15=
EXTT16=
EXTT17=
EXTT18=
EXTT19=
EXTT20=
EXTT21=
EXTT22=
PLAYORDER=
